<?xml version="1.0" standalone="no"?>
<!DOCTYPE svg PUBLIC "-//W3C//DTD SVG 20010904//EN"
 "http://www.w3.org/TR/2001/REC-SVG-20010904/DTD/svg10.dtd">
<svg version="1.0" xmlns="http://www.w3.org/2000/svg"
 width="300.000000pt" height="300.000000pt" viewBox="0 0 300.000000 300.000000"
 preserveAspectRatio="xMidYMid meet">
<metadata>
Created by potrace 1.10, written by Peter Selinger 2001-2011
</metadata>
<g transform="translate(0.000000,300.000000) scale(0.100000,-0.100000)"
fill="#000000" stroke="none">
<path d="M1360 2734 c-86 -11 -250 -47 -313 -70 -77 -26 -188 -91 -256 -150
-164 -141 -276 -356 -316 -607 -20 -124 -26 -142 -69 -189 -50 -56 -93 -128
-117 -194 -29 -82 -37 -226 -16 -307 9 -34 18 -107 20 -162 7 -154 27 -178
145 -174 l65 2 23 -67 c12 -36 40 -95 62 -130 35 -57 39 -68 35 -113 -7 -69
16 -117 67 -137 28 -11 45 -27 59 -54 26 -52 75 -74 171 -79 41 -3 92 -11 113
-19 57 -21 169 -18 217 6 22 11 44 29 50 40 10 19 21 20 153 21 78 0 176 6
218 13 73 12 78 11 109 -10 46 -32 123 -40 189 -20 30 9 59 20 65 24 6 5 41
12 79 15 100 9 153 36 177 90 13 30 30 48 54 60 59 28 89 120 67 205 -10 37
-9 52 13 121 14 43 28 112 32 152 l6 74 72 1 c76 1 117 16 152 56 39 44 49 87
48 208 -1 123 -15 183 -59 248 -17 24 -191 214 -259 283 -3 3 -15 48 -26 100
-42 199 -87 303 -185 427 -156 194 -435 328 -705 337 -58 2 -121 1 -140 -1z
m352 -43 c80 -21 231 -92 308 -144 106 -72 216 -199 272 -312 29 -57 60 -157
83 -260 8 -38 18 -81 21 -94 3 -13 49 -69 103 -125 160 -164 187 -200 206
-271 24 -88 18 -265 -10 -314 -36 -61 -66 -76 -163 -78 l-87 -2 -6 -88 c-4
-52 -16 -113 -29 -148 -13 -33 -22 -69 -21 -80 1 -11 4 -50 7 -86 8 -90 -11
-135 -66 -156 -26 -11 -40 -22 -40 -34 0 -29 -58 -88 -98 -99 -20 -5 -56 -10
-80 -10 -24 0 -64 -10 -90 -22 -28 -13 -74 -23 -114 -26 -59 -4 -73 -1 -113
23 -45 26 -47 26 -123 14 -42 -7 -140 -13 -218 -13 l-141 -1 -41 -37 c-24 -21
-56 -40 -77 -44 -47 -8 -125 1 -167 20 -18 8 -72 16 -120 18 -98 5 -127 21
-154 85 -9 21 -21 33 -33 33 -11 0 -33 12 -50 26 -29 25 -31 29 -31 100 0 68
-3 78 -34 121 -36 50 -58 99 -76 170 l-11 42 -79 -2 c-115 -2 -122 7 -131 156
-4 61 -14 144 -23 182 -20 88 -20 117 0 212 19 95 51 158 122 247 56 70 56 70
79 195 59 331 182 533 415 685 107 69 232 111 423 140 73 11 311 -3 387 -23z"/>
<path d="M1317 2634 c-197 -30 -317 -79 -442 -181 -173 -141 -278 -343 -320
-619 l-17 -111 -60 -74 c-33 -41 -69 -92 -80 -114 -47 -91 -61 -222 -32 -300
10 -26 15 -74 14 -140 0 -55 4 -106 9 -114 9 -14 50 -12 161 5 l36 6 12 -73
c14 -83 59 -175 115 -233 l38 -40 -20 -37 c-38 -66 -26 -89 52 -103 30 -6 37
-11 37 -31 0 -37 10 -55 41 -70 33 -18 89 -19 143 -4 34 9 40 8 52 -9 18 -26
77 -46 110 -38 13 4 43 25 65 47 l41 41 191 2 c154 2 205 7 256 22 l64 19 34
-32 c48 -46 76 -50 137 -23 28 13 85 26 127 30 96 10 126 28 140 86 10 37 15
44 36 44 13 0 35 11 48 25 34 33 33 77 -3 106 l-27 23 26 56 c50 105 61 151
67 277 2 66 8 127 13 134 6 10 18 6 51 -17 34 -23 54 -29 95 -29 92 0 130 64
120 202 -8 102 -31 146 -143 264 -54 57 -115 122 -136 145 -35 36 -41 52 -59
138 -44 215 -97 328 -213 453 -76 82 -144 132 -251 185 -178 89 -331 113 -528
82z m285 -48 c269 -52 514 -242 598 -464 34 -89 68 -231 85 -354 29 -218 45
-719 24 -807 -5 -25 -24 -77 -40 -118 -27 -63 -38 -78 -92 -119 -107 -81 -351
-185 -510 -218 -163 -34 -452 -15 -616 40 -241 81 -368 200 -406 381 -13 63
-13 68 5 85 11 10 44 21 82 25 59 8 63 10 66 36 5 38 22 34 65 -18 65 -77 74
-79 277 -66 277 19 347 39 433 127 64 65 85 112 99 230 13 113 9 134 -24 134
-42 0 -783 -175 -866 -204 -51 -18 -46 -3 6 22 40 19 49 45 17 50 -30 4 -79
-31 -113 -80 -30 -44 -62 -142 -62 -191 0 -28 -27 -43 -59 -32 -37 11 -128
122 -151 182 -53 137 -15 266 124 428 32 37 37 52 56 165 41 234 105 387 216
508 112 123 240 201 389 236 162 38 279 44 397 22z m965 -1105 c20 -33 27 -60
31 -116 2 -41 2 -85 -2 -99 -15 -62 -72 -73 -145 -27 -25 16 -55 32 -67 35
-20 6 -21 15 -27 179 -4 94 -10 197 -13 227 l-5 55 100 -105 c56 -58 113 -125
128 -149z m-921 -103 c-11 -116 -30 -169 -82 -227 -55 -61 -117 -95 -200 -110
-87 -15 -362 -34 -400 -27 -36 7 -101 71 -108 108 -3 13 -7 48 -10 79 l-4 57
71 21 c40 11 198 50 352 86 154 36 294 69 310 74 17 5 41 9 54 10 23 1 24 0
17 -71z m-820 -196 c-1 -40 -4 -47 -21 -47 -16 0 -21 8 -23 39 -4 50 2 66 26
59 16 -4 20 -13 18 -51z m-66 -1 c0 -28 5 -53 10 -56 15 -9 13 -68 -2 -63 -14
5 -23 34 -32 111 -6 48 -5 57 8 57 12 0 16 -11 16 -49z m-37 -52 c6 -65 5 -67
-18 -71 -32 -7 -34 -4 -25 40 4 20 11 54 15 76 9 53 21 34 28 -45z m-213 -104
c0 -3 -18 -5 -39 -5 -37 0 -39 2 -43 34 -2 19 -2 39 0 44 3 10 82 -61 82 -73z
m1753 -330 c28 -21 17 -48 -23 -56 -39 -8 -57 -29 -66 -76 -8 -42 -32 -53
-114 -53 -43 0 -69 -6 -101 -25 -55 -31 -80 -31 -107 -2 l-22 23 57 18 c86 27
231 98 293 144 64 47 60 45 83 27z m-1225 -194 c54 -16 117 -33 142 -37 l44
-6 -32 -29 c-40 -36 -71 -37 -102 -4 -23 25 -29 26 -119 23 l-95 -3 -7 38 c-8
48 -17 57 -68 64 -45 6 -48 12 -26 47 l16 24 75 -43 c42 -24 119 -57 172 -74z"/>
<path d="M1888 2114 c-57 -31 -66 -107 -19 -155 49 -48 125 -38 156 21 24 46
19 78 -19 116 -38 38 -73 43 -118 18z m77 -36 c54 -24 35 -108 -25 -108 -57 0
-80 60 -38 100 25 23 29 24 63 8z"/>
<path d="M979 2061 c-39 -39 -40 -96 -4 -139 50 -60 142 -47 171 24 20 47 11
87 -28 119 -43 36 -100 35 -139 -4z m123 -38 c8 -16 14 -37 12 -47 -11 -68
-124 -61 -124 8 0 65 80 93 112 39z"/>
<path d="M1418 1995 c-94 -19 -163 -59 -209 -121 -45 -59 -47 -78 -16 -125 49
-75 191 -107 393 -89 170 15 272 62 304 139 27 66 -41 155 -142 186 -72 23
-245 28 -330 10z m333 -39 c25 -9 60 -32 78 -50 l32 -33 -183 -7 c-160 -6
-252 -15 -437 -42 l-44 -7 34 42 c72 90 170 122 354 117 79 -2 136 -9 166 -20z
m103 -112 c9 -3 16 -12 16 -20 0 -28 -62 -83 -115 -103 -117 -44 -351 -52
-457 -15 -27 9 -59 29 -74 47 l-26 31 26 7 c52 14 264 40 396 48 186 11 216
12 234 5z"/>
<path d="M1311 1089 c-30 -5 -57 -12 -60 -14 -8 -8 40 -4 119 10 54 9 64 13
35 13 -22 0 -64 -4 -94 -9z"/>
</g>
</svg>
